<svg width="15" height="15" viewBox="0 0 15 15" fill="none" xmlns="http://www.w3.org/2000/svg">
<path fill-rule="evenodd" clip-rule="evenodd" d="M15 6.63696C15 6.63696 12 11.75 7.5 11.75C3 11.75 0 6.63696 0 6.63696C0 6.63696 3 2 7.5 2C12 2 15 6.63696 15 6.63696ZM7.5 4.25C8.94707 4.25 10.125 5.42825 10.125 6.87582C10.125 8.32257 8.94707 9.5 7.5 9.5C6.05293 9.5 4.875 8.32585 4.875 6.87582C4.875 5.42825 6.05293 4.25 7.5 4.25ZM7.49858 8.18785C8.22277 8.18785 8.80965 7.59681 8.80965 6.8717C8.80965 6.14604 8.22222 5.555 7.49858 5.555C6.77549 5.555 6.1875 6.14439 6.1875 6.8706C6.1875 7.59681 6.77549 8.18785 7.49858 8.18785Z" fill="#BCBFC2"/>
</svg>
